<svg width="537" height="90" viewBox="0 0 537 90" fill="none" xmlns="http://www.w3.org/2000/svg">
<path d="M5.66244e-07 9.89844C5.66244e-07 7.09844 0.933334 4.7651 2.8 2.89843C4.73333 0.965098 7.06667 -0.00156784 9.8 -0.00156784C12.6 -0.00156784 14.9333 0.965098 16.8 2.89843C18.7333 4.7651 19.7 7.09844 19.7 9.89844V46.2984C19.7 49.7651 20.2 52.9318 21.2 55.7984C22.2667 58.6651 23.7667 61.1318 25.7 63.1984C27.6333 65.2651 30.0333 66.8651 32.9 67.9984C35.7667 69.1318 39 69.6984 42.6 69.6984H148C150.467 69.6984 152.633 70.5318 154.5 72.1984C156.433 73.8651 157.5 75.9318 157.7 78.3984C157.767 78.5984 157.8 78.9651 157.8 79.4984C157.8 82.2318 156.867 84.5651 155 86.4984C153.133 88.4318 150.8 89.3984 148 89.3984H56.7H56.6H38.5C32.7667 89.3984 27.5333 88.0984 22.8 85.4984C18.0667 82.8318 14 79.3651 10.6 75.0984C7.26667 70.8318 4.66667 66.0318 2.8 60.6984C0.933334 55.3651 5.66244e-07 50.0318 5.66244e-07 44.6984V9.89844ZM167.773 9.89844C167.773 7.09844 168.707 4.7651 170.573 2.89843C172.44 1.03176 174.773 0.0984309 177.573 0.0984309C180.373 0.0984309 182.707 1.03176 184.573 2.89843C186.507 4.7651 187.473 7.09844 187.473 9.89844V44.6984C187.473 47.5651 187.807 50.3984 188.473 53.1984C189.14 55.9318 190.273 58.4984 191.873 60.8984C194.073 64.1651 196.74 66.4651 199.873 67.7984C203.007 69.0651 206.507 69.6984 210.373 69.6984H291.973C295.707 69.6984 299.007 69.0984 301.873 67.8984C304.74 66.6984 307.14 64.9984 309.073 62.7984C311.007 60.5984 312.473 57.9651 313.473 54.8984C314.473 51.8318 314.973 48.4318 314.973 44.6984V9.89844C314.973 7.09844 315.907 4.7651 317.773 2.89843C319.64 1.03176 321.973 0.0984309 324.773 0.0984309C327.573 0.0984309 329.907 1.03176 331.773 2.89843C333.64 4.7651 334.573 7.09844 334.573 9.89844V44.6984C334.573 50.0318 333.673 55.3651 331.873 60.6984C330.14 65.9651 327.64 70.7318 324.373 74.9984C321.107 79.2651 317.14 82.7318 312.473 85.3984C307.873 88.0651 302.673 89.3984 296.873 89.3984H203.473C197.94 89.1318 192.973 87.5984 188.573 84.7984C184.173 81.9984 180.407 78.4984 177.273 74.2984C174.207 70.0318 171.84 65.3318 170.173 60.1984C168.573 54.9984 167.773 49.8318 167.773 44.6984V9.89844ZM350.586 12.2984C350.586 10.6318 350.886 9.0651 351.486 7.59844C352.086 6.0651 352.919 4.7651 353.986 3.69843C355.119 2.5651 356.419 1.69844 357.886 1.09844C359.419 0.431766 361.053 0.0984309 362.786 0.0984309C365.719 0.0984309 368.353 1.09843 370.686 3.09843L395.686 27.4984C401.553 33.1651 408.519 37.6984 416.586 41.0984C424.719 44.4984 433.719 46.1984 443.586 46.1984C453.519 46.1984 462.586 44.4984 470.786 41.0984C478.986 37.6984 486.019 33.1651 491.886 27.4984L516.786 2.79843C517.719 1.8651 518.853 1.19843 520.186 0.798434C521.586 0.331765 522.986 0.0984309 524.386 0.0984309C526.053 0.0984309 527.619 0.431766 529.086 1.09844C530.619 1.69844 531.919 2.5651 532.986 3.69843C534.119 4.7651 534.986 6.0651 535.586 7.59844C536.253 9.0651 536.586 10.6318 536.586 12.2984V79.5984C536.586 82.3318 535.619 84.6651 533.686 86.5984C531.819 88.4651 529.486 89.3984 526.686 89.3984C523.953 89.3984 521.619 88.4651 519.686 86.5984C517.819 84.6651 516.886 82.3318 516.886 79.5984V30.3984L505.586 41.6984C501.719 45.4318 497.453 48.7984 492.786 51.7984C488.186 54.7318 483.253 57.2651 477.986 59.3984C472.786 61.4651 467.286 63.0651 461.486 64.1984C455.753 65.3318 449.786 65.8984 443.586 65.8984C437.386 65.8984 431.419 65.3318 425.686 64.1984C419.953 63.0651 414.486 61.4318 409.286 59.2984C404.086 57.1651 399.186 54.6318 394.586 51.6984C389.986 48.6984 385.753 45.3318 381.886 41.5984L370.286 30.1984V79.6984C370.286 81.0318 370.019 82.2984 369.486 83.4984C369.019 84.6318 368.319 85.6651 367.386 86.5984C366.519 87.4651 365.486 88.1651 364.286 88.6984C363.086 89.1651 361.819 89.3984 360.486 89.3984H360.286C358.953 89.3984 357.686 89.1651 356.486 88.6984C355.353 88.1651 354.319 87.4651 353.386 86.5984C352.519 85.6651 351.819 84.6318 351.286 83.4984C350.819 82.2984 350.586 81.0318 350.586 79.6984V12.2984ZM443.586 89.3984C440.853 89.3984 438.519 88.4651 436.586 86.5984C434.719 84.6651 433.786 82.3318 433.786 79.5984V78.8984C433.786 76.1651 434.719 73.8651 436.586 71.9984C438.519 70.0651 440.853 69.0984 443.586 69.0984C446.319 69.0984 448.619 70.0651 450.486 71.9984C452.419 73.8651 453.386 76.1651 453.386 78.8984V79.5984C453.386 82.3318 452.419 84.6651 450.486 86.5984C448.619 88.4651 446.319 89.3984 443.586 89.3984Z" fill="black"/>
</svg>
